# xmcd
#
# Track frame offsets:
#	150
#	27675
#	43523
#	61049
#	82942
#	97072
#	127808
#	150896
#
# Disc length: 2242 seconds
#
# Revision: 1
# Processed by: cddbd v1.5.1PL0 Copyright (c) Steve Scherf et al.
# Submitted via: EasyCDDAExtractor 6.5.0.3
#
DISCID=5408c008
DTITLE=Marshall Tucker - Greatest Hits
DYEAR=1900
DGENRE=Country
TTITLE0=Can't You See
TTITLE1=Heard It In A Love Song
TTITLE2=Searchin' For A Rainbow
TTITLE3=Ramblin'
TTITLE4=Fire On The Mountain
TTITLE5=This Ol' Cowboy
TTITLE6=24 Hours At A Time
TTITLE7=Long Hard Ride
EXTD=
EXTT0=
EXTT1=
EXTT2=
EXTT3=
EXTT4=
EXTT5=
EXTT6=
EXTT7=
PLAYORDER=
